<svg width="512" height="512" viewBox="0 0 512 512" xmlns="http://www.w3.org/2000/svg">
    <defs>
        <linearGradient id="bgGrad" x1="0%" y1="0%" x2="100%" y2="100%">
            <stop offset="0%" stop-color="#87CEEB"/>
            <stop offset="100%" stop-color="#4A90E2"/>
        </linearGradient>
        <linearGradient id="glassGrad" x1="0%" y1="0%" x2="0%" y2="100%">
            <stop offset="0%" stop-color="#ffffff" stop-opacity="0.6"/>
            <stop offset="50%" stop-color="#ffffff" stop-opacity="0.1"/>
            <stop offset="100%" stop-color="#ffffff" stop-opacity="0.3"/>
        </linearGradient>
        <filter id="blur" x="-50%" y="-50%" width="200%" height="200%">
            <feGaussianBlur in="SourceGraphic" stdDeviation="10"/>
        </filter>
        <filter id="shadow" x="-50%" y="-50%" width="200%" height="200%">
            <feDropShadow dx="0" dy="10" stdDeviation="15" flood-opacity="0.15"/>
        </filter>
        <filter id="glow">
            <feGaussianBlur stdDeviation="6" result="blur"/>
            <feMerge>
                <feMergeNode in="blur"/>
                <feMergeNode in="SourceGraphic"/>
            </feMerge>
        </filter>
    </defs>

    <!-- Background -->
    <rect width="512" height="512" rx="120" fill="url(#bgGrad)"/>
    <circle cx="100" cy="100" r="75" fill="#fff" opacity="0.15" filter="url(#blur)"/>
    <circle cx="412" cy="150" r="100" fill="#fff" opacity="0.1" filter="url(#blur)"/>
    <circle cx="75" cy="400" r="60" fill="#fff" opacity="0.12" filter="url(#blur)"/>

    <!-- Glassmorphism Container -->
    <rect x="106" y="106" width="300" height="300" rx="50" fill="url(#glassGrad)"
          stroke="#fff" stroke-width="2" stroke-opacity="0.7" filter="url(#shadow)"/>

    <!-- University Building Icon -->
    <g transform="translate(256,210)">
        <ellipse cx="0" cy="60" rx="70" ry="15" fill="#2C5AA0" opacity="0.1" filter="url(#blur)"/>
        <rect x="-60" y="-50" width="120" height="110" rx="2" fill="#fff" filter="url(#shadow)"/>
        <g transform="translate(0,-50)">
            <rect x="-20" y="-40" width="40" height="40" fill="#fff" opacity="0.9"/>
            <path d="M-25,0 L0,-20 L25,0 Z" fill="#2C5AA0"/>
            <circle cx="0" cy="-20" r="10" fill="#2C5AA0" opacity="0.8"/>
            <circle cx="0" cy="-20" r="9" fill="#fff"/>
            <line x1="0" y1="-20" x2="0" y2="-25" stroke="#2C5AA0" stroke-width="1"/>
            <line x1="0" y1="-20" x2="4" y2="-17" stroke="#2C5AA0" stroke-width="1"/>
        </g>
        <rect x="-50" y="-10" width="4" height="60" fill="#e0e0e0" opacity="0.8"/>
        <rect x="-35" y="-10" width="4" height="60" fill="#e0e0e0" opacity="0.8"/>
        <rect x="-20" y="-10" width="4" height="60" fill="#e0e0e0" opacity="0.8"/>
        <rect x="16" y="-10" width="4" height="60" fill="#e0e0e0" opacity="0.8"/>
        <rect x="31" y="-10" width="4" height="60" fill="#e0e0e0" opacity="0.8"/>
        <rect x="46" y="-10" width="4" height="60" fill="#e0e0e0" opacity="0.8"/>
        <g opacity="0.7">
            <path d="M-40,-40 L-40,-20 Q-40,-10 -30,-10 Q-20,-10 -20,-20 L-20,-40 Z" fill="#4A90E2"/>
            <path d="M-10,-40 L-10,-20 Q-10,-10 0,-10 Q10,-10 10,-20 L10,-40 Z" fill="#4A90E2"/>
            <path d="M20,-40 L20,-20 Q20,-10 30,-10 Q40,-10 40,-20 L40,-40 Z" fill="#4A90E2"/>
            <rect x="-40" y="5" width="17" height="15" rx="3" fill="#87CEEB"/>
            <rect x="-10" y="5" width="17" height="15" rx="3" fill="#87CEEB"/>
            <rect x="20" y="5" width="17" height="15" rx="3" fill="#87CEEB"/>
        </g>
        <g transform="translate(0,50)">
            <rect x="-30" y="5" width="60" height="3" fill="#d0d0d0" opacity="0.8"/>
            <rect x="-27" y="2" width="54" height="3" fill="#d0d0d0" opacity="0.8"/>
            <path d="M-15,-5 L-15,5 L15,5 L15,-5 Q15,-15 0,-15 Q-15,-15 -15,-5 Z" fill="#2C5AA0" opacity="0.8"/>
            <rect x="-10" y="-2" width="9" height="7" fill="#1e3a5f"/>
            <rect x="1" y="-2" width="9" height="7" fill="#1e3a5f"/>
        </g>

        <!-- 인하공전 엠블럼 (중앙 하이라이트) -->
        <g transform="translate(0,-25)">
            <path d="M-12,-10 L12,-10 L12,7 Q12,15 0,18 Q-12,15 -12,7 Z" fill="#005BAC" opacity="0.95"/>
            <rect x="-12" y="-10" width="24" height="9" fill="#4CAF50" opacity="0.95"/>
            <text x="0" y="0" text-anchor="middle" font-size="10" font-weight="bold" fill="#fff">仁</text>
            <text x="0" y="14" text-anchor="middle" font-size="6" font-weight="bold" fill="#fff">1958</text>
        </g>
    </g>

    <!-- 혼잡도 인디케이터 -->
    <g transform="translate(256,350)" filter="url(#glow)">
        <g transform="translate(-60,0)">
            <circle cx="0" cy="0" r="20" fill="#4CAF50" opacity="0.8"/>
            <circle cx="0" cy="0" r="15" fill="#fff" opacity="0.3"/>
            <circle cx="0" cy="0" r="10" fill="#4CAF50"/>
        </g>
        <g transform="translate(0,-10)">
            <circle cx="0" cy="0" r="25" fill="#FFA726" opacity="0.8"/>
            <circle cx="0" cy="0" r="19" fill="#fff" opacity="0.3"/>
            <circle cx="0" cy="0" r="12" fill="#FFA726"/>
        </g>
        <g transform="translate(60,-5)">
            <circle cx="0" cy="0" r="22" fill="#E53935" opacity="0.8"/>
            <circle cx="0" cy="0" r="17" fill="#fff" opacity="0.3"/>
            <circle cx="0" cy="0" r="11" fill="#E53935"/>
        </g>
    </g>

    <ellipse cx="175" cy="125" rx="125" ry="60" fill="#fff" opacity="0.15"
             transform="rotate(-25 175 125)" filter="url(#blur)"/>
</svg>