<svg width="512" height="512" viewBox="0 0 512 512" xmlns="http://www.w3.org/2000/svg">
    <!-- 배경 그라데이션 정의 -->
    <defs>
        <linearGradient id="bgGradient" x1="0%" y1="0%" x2="100%" y2="100%">
            <stop offset="0%" style="stop-color:#87CEEB;stop-opacity:1" />
            <stop offset="100%" style="stop-color:#4A90E2;stop-opacity:1" />
        </linearGradient>

        <linearGradient id="buildingGradient" x1="0%" y1="100%" x2="0%" y2="0%">
            <stop offset="0%" style="stop-color:#e8e8e8;stop-opacity:1" />
            <stop offset="100%" style="stop-color:#ffffff;stop-opacity:1" />
        </linearGradient>

        <!-- 그림자 필터 -->
        <filter id="softShadow">
            <feDropShadow dx="0" dy="5" stdDeviation="8" flood-opacity="0.15"/>
        </filter>
    </defs>

    <!-- 둥근 사각형 배경 -->
    <rect x="0" y="0" width="512" height="512" rx="120" ry="120" fill="url(#bgGradient)"/>

    <!-- 심플한 건물 -->
    <g transform="translate(256, 200)">
        <!-- 건물 본체 -->
        <rect x="-100" y="-75" width="200" height="150" rx="10" fill="url(#buildingGradient)" filter="url(#softShadow)"/>

        <!-- 단순화된 창문 (3x2 그리드) -->
        <rect x="-75" y="-50" width="40" height="30" rx="5" fill="#4A90E2"/>
        <rect x="-20" y="-50" width="40" height="30" rx="5" fill="#4A90E2"/>
        <rect x="35" y="-50" width="40" height="30" rx="5" fill="#4A90E2"/>

        <rect x="-75" y="0" width="40" height="30" rx="5" fill="#4A90E2"/>
        <rect x="-20" y="0" width="40" height="30" rx="5" fill="#4A90E2"/>
        <rect x="35" y="0" width="40" height="30" rx="5" fill="#4A90E2"/>

        <!-- 입구 -->
        <rect x="-25" y="50" width="50" height="25" rx="5" fill="#2C5AA0"/>
    </g>

    <!-- 심플한 혼잡도 표시 (3개의 점) -->
    <g transform="translate(256, 350)">
        <!-- 초록 점 (여유) -->
        <circle cx="-60" cy="0" r="25" fill="#4CAF50"/>

        <!-- 주황 점 (보통) -->
        <circle cx="0" cy="0" r="25" fill="#FFA726"/>

        <!-- 빨강 점 (혼잡) -->
        <circle cx="60" cy="0" r="25" fill="#E53935"/>
    </g>
</svg>